<mxfile host="app.diagrams.net" agent="Mozilla/5.0 (Windows NT 10.0; Win64; x64) AppleWebKit/537.36 (KHTML, like Gecko) Chrome/132.0.0.0 Safari/537.36" version="26.0.14">
  <diagram name="第 1 页" id="n5O30AkRFfMoKTLBF_Ah">
    <mxGraphModel dx="2501" dy="746" grid="1" gridSize="10" guides="1" tooltips="1" connect="1" arrows="1" fold="1" page="1" pageScale="1" pageWidth="827" pageHeight="1169" math="0" shadow="0">
      <root>
        <mxCell id="0" />
        <mxCell id="1" parent="0" />
        <mxCell id="EUovKKYFxvULQYdgaR_l-1" value="首頁" style="rounded=0;whiteSpace=wrap;html=1;" parent="1" vertex="1">
          <mxGeometry x="262" y="620" width="120" height="60" as="geometry" />
        </mxCell>
        <mxCell id="EUovKKYFxvULQYdgaR_l-5" value="看板頁面" style="rounded=0;whiteSpace=wrap;html=1;" parent="1" vertex="1">
          <mxGeometry x="262" y="750" width="120" height="60" as="geometry" />
        </mxCell>
        <mxCell id="EUovKKYFxvULQYdgaR_l-6" value="" style="endArrow=classic;html=1;rounded=0;exitX=0.433;exitY=1.017;exitDx=0;exitDy=0;exitPerimeter=0;entryX=0.433;entryY=-0.05;entryDx=0;entryDy=0;entryPerimeter=0;" parent="1" source="EUovKKYFxvULQYdgaR_l-1" target="EUovKKYFxvULQYdgaR_l-5" edge="1">
          <mxGeometry width="50" height="50" relative="1" as="geometry">
            <mxPoint x="312" y="750" as="sourcePoint" />
            <mxPoint x="362" y="700" as="targetPoint" />
          </mxGeometry>
        </mxCell>
        <mxCell id="EUovKKYFxvULQYdgaR_l-7" value="討論區" style="rounded=0;whiteSpace=wrap;html=1;" parent="1" vertex="1">
          <mxGeometry x="262" y="880" width="120" height="60" as="geometry" />
        </mxCell>
        <mxCell id="EUovKKYFxvULQYdgaR_l-8" value="" style="endArrow=classic;html=1;rounded=0;exitX=0.433;exitY=1.033;exitDx=0;exitDy=0;exitPerimeter=0;entryX=0.442;entryY=-0.017;entryDx=0;entryDy=0;entryPerimeter=0;" parent="1" source="EUovKKYFxvULQYdgaR_l-5" target="EUovKKYFxvULQYdgaR_l-7" edge="1">
          <mxGeometry width="50" height="50" relative="1" as="geometry">
            <mxPoint x="312" y="880" as="sourcePoint" />
            <mxPoint x="362" y="830" as="targetPoint" />
          </mxGeometry>
        </mxCell>
        <mxCell id="EUovKKYFxvULQYdgaR_l-9" value="討論區文章" style="rounded=0;whiteSpace=wrap;html=1;" parent="1" vertex="1">
          <mxGeometry x="260" y="1010" width="120" height="60" as="geometry" />
        </mxCell>
        <mxCell id="EUovKKYFxvULQYdgaR_l-10" value="" style="endArrow=classic;html=1;rounded=0;exitX=0.442;exitY=1.033;exitDx=0;exitDy=0;exitPerimeter=0;entryX=0.45;entryY=-0.05;entryDx=0;entryDy=0;entryPerimeter=0;" parent="1" source="EUovKKYFxvULQYdgaR_l-7" edge="1">
          <mxGeometry width="50" height="50" relative="1" as="geometry">
            <mxPoint x="312" y="1000" as="sourcePoint" />
            <mxPoint x="316" y="1007" as="targetPoint" />
          </mxGeometry>
        </mxCell>
        <mxCell id="EUovKKYFxvULQYdgaR_l-16" value="會員登入" style="rounded=0;whiteSpace=wrap;html=1;" parent="1" vertex="1">
          <mxGeometry x="-118" y="630" width="120" height="60" as="geometry" />
        </mxCell>
        <mxCell id="EUovKKYFxvULQYdgaR_l-28" value="新聞區" style="rounded=0;whiteSpace=wrap;html=1;" parent="1" vertex="1">
          <mxGeometry x="550" y="620" width="120" height="60" as="geometry" />
        </mxCell>
        <mxCell id="EUovKKYFxvULQYdgaR_l-29" value="" style="endArrow=classic;html=1;rounded=0;exitX=1;exitY=0.5;exitDx=0;exitDy=0;" parent="1" source="EUovKKYFxvULQYdgaR_l-1" edge="1">
          <mxGeometry width="50" height="50" relative="1" as="geometry">
            <mxPoint x="312" y="600" as="sourcePoint" />
            <mxPoint x="550" y="650" as="targetPoint" />
            <Array as="points">
              <mxPoint x="480" y="650" />
            </Array>
          </mxGeometry>
        </mxCell>
        <mxCell id="EUovKKYFxvULQYdgaR_l-30" value="新聞文章" style="rounded=0;whiteSpace=wrap;html=1;" parent="1" vertex="1">
          <mxGeometry x="790" y="620" width="120" height="60" as="geometry" />
        </mxCell>
        <mxCell id="EUovKKYFxvULQYdgaR_l-31" value="" style="endArrow=classic;html=1;rounded=0;exitX=1;exitY=0.5;exitDx=0;exitDy=0;entryX=0;entryY=0.5;entryDx=0;entryDy=0;" parent="1" source="EUovKKYFxvULQYdgaR_l-28" target="EUovKKYFxvULQYdgaR_l-30" edge="1">
          <mxGeometry width="50" height="50" relative="1" as="geometry">
            <mxPoint x="302" y="400" as="sourcePoint" />
            <mxPoint x="352" y="350" as="targetPoint" />
          </mxGeometry>
        </mxCell>
        <mxCell id="kYfwRGsrpZ2wFnb4QoMy-5" value="" style="endArrow=classic;html=1;rounded=0;exitX=0.433;exitY=1.033;exitDx=0;exitDy=0;exitPerimeter=0;entryX=0.442;entryY=-0.017;entryDx=0;entryDy=0;entryPerimeter=0;" parent="1" edge="1">
          <mxGeometry width="50" height="50" relative="1" as="geometry">
            <mxPoint x="110" y="940" as="sourcePoint" />
            <mxPoint x="113.03999999999996" y="938.98" as="targetPoint" />
          </mxGeometry>
        </mxCell>
        <mxCell id="8JHaxAetJxbawsCaVAg0-28" value="發文/編輯" style="rounded=0;whiteSpace=wrap;html=1;" parent="1" vertex="1">
          <mxGeometry x="-120" y="960" width="120" height="60" as="geometry" />
        </mxCell>
        <mxCell id="8JHaxAetJxbawsCaVAg0-29" value="有登入帳號" style="text;html=1;align=center;verticalAlign=middle;whiteSpace=wrap;rounded=0;" parent="1" vertex="1">
          <mxGeometry x="80" y="910" width="90" height="30" as="geometry" />
        </mxCell>
        <mxCell id="8JHaxAetJxbawsCaVAg0-30" value="" style="endArrow=classic;html=1;rounded=0;exitX=0;exitY=0.5;exitDx=0;exitDy=0;entryX=1.017;entryY=0.617;entryDx=0;entryDy=0;entryPerimeter=0;" parent="1" source="EUovKKYFxvULQYdgaR_l-7" target="8JHaxAetJxbawsCaVAg0-28" edge="1">
          <mxGeometry width="50" height="50" relative="1" as="geometry">
            <mxPoint x="325" y="952" as="sourcePoint" />
            <mxPoint x="326" y="1017" as="targetPoint" />
            <Array as="points" />
          </mxGeometry>
        </mxCell>
        <mxCell id="8JHaxAetJxbawsCaVAg0-32" value="沒登入帳號" style="text;html=1;align=center;verticalAlign=middle;whiteSpace=wrap;rounded=0;" parent="1" vertex="1">
          <mxGeometry x="120" y="765" width="70" height="30" as="geometry" />
        </mxCell>
        <mxCell id="8JHaxAetJxbawsCaVAg0-33" value="" style="endArrow=classic;html=1;rounded=0;exitX=1;exitY=0.75;exitDx=0;exitDy=0;entryX=0;entryY=0.75;entryDx=0;entryDy=0;" parent="1" source="8JHaxAetJxbawsCaVAg0-28" target="EUovKKYFxvULQYdgaR_l-9" edge="1">
          <mxGeometry width="50" height="50" relative="1" as="geometry">
            <mxPoint x="100" y="1080" as="sourcePoint" />
            <mxPoint x="150" y="1030" as="targetPoint" />
          </mxGeometry>
        </mxCell>
        <mxCell id="8JHaxAetJxbawsCaVAg0-34" value="發文成功" style="text;html=1;align=center;verticalAlign=middle;whiteSpace=wrap;rounded=0;" parent="1" vertex="1">
          <mxGeometry x="130" y="1000" width="90" height="30" as="geometry" />
        </mxCell>
        <mxCell id="8JHaxAetJxbawsCaVAg0-37" value="商城" style="rounded=0;whiteSpace=wrap;html=1;" parent="1" vertex="1">
          <mxGeometry x="210" y="420" width="120" height="60" as="geometry" />
        </mxCell>
        <mxCell id="8JHaxAetJxbawsCaVAg0-38" value="結帳畫面" style="rounded=0;whiteSpace=wrap;html=1;" parent="1" vertex="1">
          <mxGeometry x="-360" y="220" width="120" height="60" as="geometry" />
        </mxCell>
        <mxCell id="8JHaxAetJxbawsCaVAg0-40" value="商品頁面" style="rounded=0;whiteSpace=wrap;html=1;" parent="1" vertex="1">
          <mxGeometry x="170" y="220" width="120" height="60" as="geometry" />
        </mxCell>
        <mxCell id="8JHaxAetJxbawsCaVAg0-42" value="訂單記錄" style="rounded=0;whiteSpace=wrap;html=1;" parent="1" vertex="1">
          <mxGeometry x="-640" y="220" width="120" height="60" as="geometry" />
        </mxCell>
        <mxCell id="8JHaxAetJxbawsCaVAg0-46" value="" style="endArrow=classic;html=1;rounded=0;exitX=0.317;exitY=0;exitDx=0;exitDy=0;exitPerimeter=0;entryX=0.433;entryY=1.033;entryDx=0;entryDy=0;entryPerimeter=0;" parent="1" source="EUovKKYFxvULQYdgaR_l-1" target="8JHaxAetJxbawsCaVAg0-37" edge="1">
          <mxGeometry width="50" height="50" relative="1" as="geometry">
            <mxPoint x="280" y="570" as="sourcePoint" />
            <mxPoint x="330" y="520" as="targetPoint" />
          </mxGeometry>
        </mxCell>
        <mxCell id="8JHaxAetJxbawsCaVAg0-47" value="" style="endArrow=classic;html=1;rounded=0;exitX=0.5;exitY=0;exitDx=0;exitDy=0;entryX=0.5;entryY=1;entryDx=0;entryDy=0;" parent="1" source="8JHaxAetJxbawsCaVAg0-37" target="8JHaxAetJxbawsCaVAg0-40" edge="1">
          <mxGeometry width="50" height="50" relative="1" as="geometry">
            <mxPoint x="220" y="380" as="sourcePoint" />
            <mxPoint x="270" y="330" as="targetPoint" />
          </mxGeometry>
        </mxCell>
        <mxCell id="8JHaxAetJxbawsCaVAg0-48" value="瀏覽" style="text;html=1;align=center;verticalAlign=middle;whiteSpace=wrap;rounded=0;" parent="1" vertex="1">
          <mxGeometry x="190" y="340" width="60" height="30" as="geometry" />
        </mxCell>
        <mxCell id="8JHaxAetJxbawsCaVAg0-49" value="" style="endArrow=classic;html=1;rounded=0;exitX=0;exitY=0.5;exitDx=0;exitDy=0;" parent="1" source="8JHaxAetJxbawsCaVAg0-40" edge="1">
          <mxGeometry width="50" height="50" relative="1" as="geometry">
            <mxPoint x="40" y="270" as="sourcePoint" />
            <mxPoint x="-10" y="250" as="targetPoint" />
          </mxGeometry>
        </mxCell>
        <mxCell id="8JHaxAetJxbawsCaVAg0-50" value="有登入帳號" style="text;html=1;align=center;verticalAlign=middle;whiteSpace=wrap;rounded=0;" parent="1" vertex="1">
          <mxGeometry x="20" y="220" width="70" height="30" as="geometry" />
        </mxCell>
        <mxCell id="8JHaxAetJxbawsCaVAg0-51" value="放入購物車&lt;div&gt;(有彈窗)&lt;/div&gt;" style="rounded=0;whiteSpace=wrap;html=1;" parent="1" vertex="1">
          <mxGeometry x="-120" y="220" width="120" height="60" as="geometry" />
        </mxCell>
        <mxCell id="8JHaxAetJxbawsCaVAg0-52" value="沒登入帳號" style="text;html=1;align=center;verticalAlign=middle;whiteSpace=wrap;rounded=0;" parent="1" vertex="1">
          <mxGeometry x="-10" y="420" width="80" height="30" as="geometry" />
        </mxCell>
        <mxCell id="8JHaxAetJxbawsCaVAg0-54" value="" style="endArrow=classic;html=1;rounded=0;exitX=0;exitY=0.5;exitDx=0;exitDy=0;entryX=1;entryY=0.5;entryDx=0;entryDy=0;" parent="1" source="8JHaxAetJxbawsCaVAg0-51" target="8JHaxAetJxbawsCaVAg0-38" edge="1">
          <mxGeometry width="50" height="50" relative="1" as="geometry">
            <mxPoint x="-210" y="290" as="sourcePoint" />
            <mxPoint x="-160" y="240" as="targetPoint" />
          </mxGeometry>
        </mxCell>
        <mxCell id="8JHaxAetJxbawsCaVAg0-56" value="" style="endArrow=classic;html=1;rounded=0;exitX=0;exitY=0.5;exitDx=0;exitDy=0;entryX=1;entryY=0.5;entryDx=0;entryDy=0;" parent="1" source="8JHaxAetJxbawsCaVAg0-38" target="8JHaxAetJxbawsCaVAg0-42" edge="1">
          <mxGeometry width="50" height="50" relative="1" as="geometry">
            <mxPoint x="-470" y="280" as="sourcePoint" />
            <mxPoint x="-420" y="230" as="targetPoint" />
          </mxGeometry>
        </mxCell>
        <mxCell id="8JHaxAetJxbawsCaVAg0-57" value="結帳成功" style="text;html=1;align=center;verticalAlign=middle;whiteSpace=wrap;rounded=0;" parent="1" vertex="1">
          <mxGeometry x="-473" y="210" width="60" height="30" as="geometry" />
        </mxCell>
        <mxCell id="8JHaxAetJxbawsCaVAg0-58" value="客服中心" style="rounded=0;whiteSpace=wrap;html=1;" parent="1" vertex="1">
          <mxGeometry x="490" y="405" width="120" height="60" as="geometry" />
        </mxCell>
        <mxCell id="8JHaxAetJxbawsCaVAg0-59" value="" style="endArrow=classic;html=1;rounded=0;exitX=1;exitY=0.5;exitDx=0;exitDy=0;entryX=-0.025;entryY=0.4;entryDx=0;entryDy=0;entryPerimeter=0;" parent="1" source="8JHaxAetJxbawsCaVAg0-37" target="8JHaxAetJxbawsCaVAg0-58" edge="1">
          <mxGeometry width="50" height="50" relative="1" as="geometry">
            <mxPoint x="390" y="480" as="sourcePoint" />
            <mxPoint x="440" y="430" as="targetPoint" />
          </mxGeometry>
        </mxCell>
        <mxCell id="8JHaxAetJxbawsCaVAg0-60" value="" style="endArrow=classic;html=1;rounded=0;exitX=0.942;exitY=0.017;exitDx=0;exitDy=0;exitPerimeter=0;entryX=0.25;entryY=1;entryDx=0;entryDy=0;" parent="1" source="EUovKKYFxvULQYdgaR_l-1" target="8JHaxAetJxbawsCaVAg0-58" edge="1">
          <mxGeometry width="50" height="50" relative="1" as="geometry">
            <mxPoint x="380" y="590" as="sourcePoint" />
            <mxPoint x="430" y="540" as="targetPoint" />
          </mxGeometry>
        </mxCell>
        <mxCell id="8JHaxAetJxbawsCaVAg0-62" value="" style="endArrow=classic;startArrow=classic;html=1;rounded=0;exitX=0.9;exitY=0.983;exitDx=0;exitDy=0;exitPerimeter=0;entryX=0;entryY=0.25;entryDx=0;entryDy=0;" parent="1" source="EUovKKYFxvULQYdgaR_l-16" target="EUovKKYFxvULQYdgaR_l-7" edge="1">
          <mxGeometry width="50" height="50" relative="1" as="geometry">
            <mxPoint x="60" y="850" as="sourcePoint" />
            <mxPoint x="110" y="800" as="targetPoint" />
          </mxGeometry>
        </mxCell>
        <mxCell id="8JHaxAetJxbawsCaVAg0-63" value="" style="endArrow=classic;startArrow=classic;html=1;rounded=0;exitX=1;exitY=0.5;exitDx=0;exitDy=0;entryX=0;entryY=0.5;entryDx=0;entryDy=0;" parent="1" source="EUovKKYFxvULQYdgaR_l-16" target="EUovKKYFxvULQYdgaR_l-1" edge="1">
          <mxGeometry width="50" height="50" relative="1" as="geometry">
            <mxPoint x="110" y="690" as="sourcePoint" />
            <mxPoint x="160" y="640" as="targetPoint" />
          </mxGeometry>
        </mxCell>
        <mxCell id="8JHaxAetJxbawsCaVAg0-65" value="" style="endArrow=classic;startArrow=classic;html=1;rounded=0;entryX=0;entryY=1;entryDx=0;entryDy=0;exitX=0.75;exitY=0;exitDx=0;exitDy=0;" parent="1" source="EUovKKYFxvULQYdgaR_l-16" target="8JHaxAetJxbawsCaVAg0-40" edge="1">
          <mxGeometry width="50" height="50" relative="1" as="geometry">
            <mxPoint x="30" y="550" as="sourcePoint" />
            <mxPoint x="80" y="500" as="targetPoint" />
          </mxGeometry>
        </mxCell>
        <mxCell id="ruqb7cpN7K5RGt8A3xYa-1" value="個人頁面" style="rounded=0;whiteSpace=wrap;html=1;" vertex="1" parent="1">
          <mxGeometry x="-310" y="630" width="120" height="60" as="geometry" />
        </mxCell>
        <mxCell id="ruqb7cpN7K5RGt8A3xYa-3" value="" style="endArrow=classic;html=1;rounded=0;exitX=0;exitY=0.5;exitDx=0;exitDy=0;entryX=1;entryY=0.5;entryDx=0;entryDy=0;" edge="1" parent="1" source="EUovKKYFxvULQYdgaR_l-16" target="ruqb7cpN7K5RGt8A3xYa-1">
          <mxGeometry width="50" height="50" relative="1" as="geometry">
            <mxPoint x="-170" y="795" as="sourcePoint" />
            <mxPoint x="-120" y="745" as="targetPoint" />
          </mxGeometry>
        </mxCell>
        <mxCell id="ruqb7cpN7K5RGt8A3xYa-4" value="" style="endArrow=classic;html=1;rounded=0;exitX=0;exitY=0.5;exitDx=0;exitDy=0;entryX=0.558;entryY=0.95;entryDx=0;entryDy=0;entryPerimeter=0;" edge="1" parent="1" source="ruqb7cpN7K5RGt8A3xYa-1" target="8JHaxAetJxbawsCaVAg0-42">
          <mxGeometry width="50" height="50" relative="1" as="geometry">
            <mxPoint x="-510" y="475" as="sourcePoint" />
            <mxPoint x="-460" y="425" as="targetPoint" />
          </mxGeometry>
        </mxCell>
        <mxCell id="ruqb7cpN7K5RGt8A3xYa-5" value="" style="endArrow=classic;html=1;rounded=0;entryX=0;entryY=0.5;entryDx=0;entryDy=0;exitX=0.5;exitY=1;exitDx=0;exitDy=0;" edge="1" parent="1" source="ruqb7cpN7K5RGt8A3xYa-1" target="8JHaxAetJxbawsCaVAg0-28">
          <mxGeometry width="50" height="50" relative="1" as="geometry">
            <mxPoint x="-240" y="870" as="sourcePoint" />
            <mxPoint x="-190" y="820" as="targetPoint" />
          </mxGeometry>
        </mxCell>
      </root>
    </mxGraphModel>
  </diagram>
</mxfile>
